<svg id="Layer_1" data-name="Layer 1" xmlns="http://www.w3.org/2000/svg" viewBox="0 0 30 30"><defs><style>.cls-1{fill:#212721;}.cls-2{fill:#00b451;}.cls-3{fill:#76777a;}.cls-4{fill:#a7a8a9;}</style></defs><title>WDataSci-Mark1-30x30</title><polygon class="cls-1" points="6.63 16.25 8.8 25.39 9.64 22.11 8.63 17.9 6.63 16.25"/><polygon class="cls-1" points="6.21 14.47 8.19 16.08 5.47 4.74 4.75 3.98 1.2 3.98 1.2 5.47 4.08 5.47 6.21 14.47"/><polygon class="cls-2" points="9.77 18.59 4.22 14 1.2 14 1.2 13.29 4.45 13.29 9.78 17.63 15 11.98 20.19 15.33 25.57 8.69 28.8 8.69 28.8 9.39 25.86 9.39 20.37 16.24 15.08 12.82 9.77 18.59"/><polygon class="cls-3" points="11.15 17.37 8.95 26.02 10.58 26.02 13.41 14.92 11.15 17.37"/><polygon class="cls-3" points="13.95 12.82 15.08 8.4 16.07 12.44 18 13.68 15.8 4.73 14.38 4.72 11.69 15.27 13.95 12.82"/><polygon class="cls-3" points="16.43 13.93 19.24 25.4 20.06 22.08 18.36 15.18 16.43 13.93"/><polygon class="cls-4" points="25.15 8.89 25.98 5.47 28.8 5.47 28.8 3.98 25.33 3.98 24.61 4.73 22.92 11.64 25.15 8.89"/><polygon class="cls-4" points="22.31 14.14 19.4 26.02 21.02 26.02 24.57 11.33 22.31 14.14"/></svg>